<svg width="1024" height="1024" viewBox="0 0 1024 1024" fill="none" xmlns="http://www.w3.org/2000/svg">
    <rect width="1024" height="1024" rx="150" fill="url(#paint0_linear_29_4)"/>
    <g filter="url(#filter0_d_29_4)">
        <path d="M667.771 656.6C667.771 673.4 663.571 688.8 655.171 702.8C646.772 716.8 635.572 728 621.572 736.4C607.572 744.8 592.172 749 575.371 749H449.371C432.571 749 416.938 744.8 402.471 736.4C388.471 728 377.271 716.8 368.871 702.8C360.471 688.8 356.271 673.4 356.271 656.6V368.9C356.271 351.633 360.471 336 368.871 322C377.271 308 388.471 296.8 402.471 288.4C416.938 280 432.571 275.8 449.371 275.8H575.371C592.172 275.8 607.572 280 621.572 288.4C635.572 296.8 646.772 308 655.171 322C663.571 336 667.771 351.633 667.771 368.9V387.8C667.771 396.667 664.738 404.133 658.672 410.2C652.605 416.267 644.905 419.3 635.571 419.3H616.672C607.805 419.3 600.105 416.267 593.571 410.2C587.505 404.133 584.472 396.667 584.472 387.8V368.9C584.472 362.367 581.438 359.1 575.371 359.1H449.371C443.305 359.1 440.271 362.367 440.271 368.9V656.6C440.271 658.933 441.205 661.267 443.071 663.6C444.938 665.467 447.038 666.4 449.371 666.4H575.371C577.705 666.4 579.805 665.467 581.671 663.6C583.538 661.267 584.472 658.933 584.472 656.6V635.6C584.472 626.733 587.505 619.267 593.571 613.2C600.105 606.667 607.805 603.4 616.672 603.4H635.571C644.905 603.4 652.605 606.667 658.672 613.2C664.738 619.267 667.771 626.733 667.771 635.6V656.6Z" fill="white"/>
    </g>
    <defs>
        <filter id="filter0_d_29_4" x="346.271" y="265.8" width="351.5" height="513.2" filterUnits="userSpaceOnUse" color-interpolation-filters="sRGB">
            <feFlood flood-opacity="0" result="BackgroundImageFix"/>
            <feColorMatrix in="SourceAlpha" type="matrix" values="0 0 0 0 0 0 0 0 0 0 0 0 0 0 0 0 0 0 127 0" result="hardAlpha"/>
            <feOffset dx="10" dy="10"/>
            <feGaussianBlur stdDeviation="10"/>
            <feComposite in2="hardAlpha" operator="out"/>
            <feColorMatrix type="matrix" values="0 0 0 0 0 0 0 0 0 0 0 0 0 0 0 0 0 0 0.25 0"/>
            <feBlend mode="normal" in2="BackgroundImageFix" result="effect1_dropShadow_29_4"/>
            <feBlend mode="normal" in="SourceGraphic" in2="effect1_dropShadow_29_4" result="shape"/>
        </filter>
        <linearGradient id="paint0_linear_29_4" x1="512" y1="0" x2="512" y2="1024" gradientUnits="userSpaceOnUse">
            <stop stop-color="#0F0F0F"/>
            <stop offset="1" stop-color="#262626"/>
        </linearGradient>
    </defs>
</svg>
